# xmcd
#
# Track frame offsets: 
#        150
#        15935
#        29192
#        43312
#        55595
#        69115
#        81267
#        94680
#        110507
#        124800
#
# Disc length: 1925 seconds
#
# Revision: 2
# Processed by: cddbd v1.5PL3 Copyright (c) Steve Scherf et al.
# Submitted via: ExactAudioCopy v0.95a3
#
DISCID=7d07830a
DTITLE=James House - Hard Times For An Honest Man
DYEAR=1990
DGENRE=Country
TTITLE0=Southern Belles
TTITLE1=I Ain't Like That Anymore
TTITLE2=Because You're Mine
TTITLE3=I Wanna Be The One
TTITLE4=Here's To You
TTITLE5=That's What I Like About You
TTITLE6=You Didn't See Her
TTITLE7=You Just Get Better All The Time
TTITLE8=Right On Time
TTITLE9=Hard Times For An Honest Man
EXTD=
EXTT0=
EXTT1=
EXTT2=
EXTT3=
EXTT4=
EXTT5=
EXTT6=
EXTT7=
EXTT8=
EXTT9=
PLAYORDER=
